<svg xmlns="http://www.w3.org/2000/svg" viewBox="0 0 90.67 22.41">
  <defs>
    <style>
      .cls-1 {
        fill: #3eabe1;
      }
    </style>
  </defs>
  <g id="Layer_2" data-name="Layer 2">
    <g id="Layer_1-2" data-name="Layer 1">
      <g>
        <path class="cls-1" d="M1.27,11.48c0-1,.5-1.55,1.5-1.55h5.1q4.6,0,4.6,4.57v4c0,3.11-1.53,4.67-4.57,4.67H4.32v2.54a1.36,1.36,0,0,1-1.53,1.55,1.34,1.34,0,0,1-1.52-1.51ZM4.32,13v7.09H7.87a1.38,1.38,0,0,0,1.55-1.57V14.46c0-1-.52-1.47-1.55-1.47Z" transform="translate(-1.27 -4.81)"/>
        <path class="cls-1" d="M23.66,14.51A1.37,1.37,0,0,1,22.12,13V12H19.6a1.38,1.38,0,0,0-1.55,1.56v7a1.36,1.36,0,0,1-1.52,1.55A1.35,1.35,0,0,1,15,20.6v-7q0-4.68,4.57-4.68l4.06,0a1.34,1.34,0,0,1,1.52,1.5V13A1.35,1.35,0,0,1,23.66,14.51Z" transform="translate(-1.27 -4.81)"/>
        <path class="cls-1" d="M27.71,13.5q0-4.61,4.59-4.6h2q4.59,0,4.59,4.58v3.95c0,3.12-1.52,4.67-4.57,4.67H32.26q-4.54,0-4.55-4.57ZM32.26,12a1.33,1.33,0,0,0-1.5,1.51v4c0,1.05.5,1.57,1.5,1.57h2.06a1.37,1.37,0,0,0,1.54-1.57v-4c0-1-.51-1.47-1.54-1.47Z" transform="translate(-1.27 -4.81)"/>
        <path class="cls-1" d="M48.66,4.81a1.37,1.37,0,0,1,1.55,1.55V19a1.33,1.33,0,0,1,1.52,1.49,1.37,1.37,0,0,1-1.52,1.56l-1.52,0a1.36,1.36,0,0,1-1.53-1.53V6.36A1.35,1.35,0,0,1,48.66,4.81Z" transform="translate(-1.27 -4.81)"/>
        <path class="cls-1" d="M65.51,20.63A1.34,1.34,0,0,1,64,22.13h-5.1q-4.58,0-4.57-4.67v-7a1.35,1.35,0,0,1,1.52-1.53H63.9c1.06,0,1.6.5,1.6,1.52A1.39,1.39,0,0,1,63.93,12H57.36v2l4.56,0a1.39,1.39,0,0,1,1.54,1.58c0,1-.49,1.48-1.51,1.48H57.36v.51a1.37,1.37,0,0,0,1.55,1.55H64A1.35,1.35,0,0,1,65.51,20.63Z" transform="translate(-1.27 -4.81)"/>
        <path class="cls-1" d="M69.54,22.1a1.34,1.34,0,0,1-1.49-1.53V10.44a1.33,1.33,0,0,1,1.52-1.5l5.1,0q4.58,0,4.57,4.68v7a1.35,1.35,0,0,1-1.52,1.53,1.36,1.36,0,0,1-1.52-1.55v-7A1.38,1.38,0,0,0,74.65,12H71.09v8.6A1.36,1.36,0,0,1,69.54,22.1Z" transform="translate(-1.27 -4.81)"/>
        <path class="cls-1" d="M91.94,10.44A1.36,1.36,0,0,1,90.45,12H86.38c-1,0-1.55.34-1.55,1s.52,1,1.56,1h1q4.56.07,4.53,4.06c0,2.69-1.52,4.05-4.53,4.06H83.27a1.29,1.29,0,0,1-1.49-1.4c0-1.05.51-1.59,1.48-1.6h4.1c1,0,1.52-.34,1.53-1s-.5-1-1.5-1h-1c-3.06,0-4.59-1.35-4.59-4.1s1.5-4,4.54-4h4.07A1.35,1.35,0,0,1,91.94,10.44Z" transform="translate(-1.27 -4.81)"/>
      </g>
    </g>
  </g>
</svg>
