<svg xmlns="http://www.w3.org/2000/svg" viewBox="0 0 79.61 16.67">
  <defs>
    <style>
      .cls-1 {
        fill: #3eabe1;
      }
    </style>
  </defs>
  <g id="Layer_2" data-name="Layer 2">
    <g id="Layer_1-2" data-name="Layer 1">
      <g>
        <path class="cls-1" d="M10.58,12.35c-.34,2.13-2.75,3.48-6.86,4,0,5.51.15,6.19-1.12,6.19-1.48,0-1.35.05-.94-5.77v-.24a3.93,3.93,0,0,0-.46-.18,1.36,1.36,0,0,1-.42-.83v-.11c0-.36.36-.8.88-1.22a5.17,5.17,0,0,0,.13-1.14v-.91C1.66,9.1.62,7.69,3,7.07a23.05,23.05,0,0,1,2.8-.39C8.24,6.5,11.23,8,10.58,12.35ZM8.5,10.58C8.09,8.14,4.52,8.24,4,9.2s-.6,5.13.37,5.05C6.79,14,8.89,13,8.5,10.58Z" transform="translate(-0.78 -6.32)"/>
        <path class="cls-1" d="M12.77,21.66c-.68-6.71-1-10.14.7-10.14.41,0,.75.44,1,1a7.28,7.28,0,0,1,3.61-.81c1.38,0,2.42.42,2.42,1.28,0,.65-1.25.88-3,.93-3.12,0-2.42,2.16-2.29,5.49,0,2.81-2,4.6-2.44,2.23Z" transform="translate(-0.78 -6.32)"/>
        <path class="cls-1" d="M26.81,11.57c2.49.31,3.71,2.57,3.71,5.23,0,3.22-2.6,5.77-5.14,5.77a4.42,4.42,0,0,1-4-2.65,6.76,6.76,0,0,1-.41-2.4C21,14.69,23.69,11.57,26.81,11.57ZM23.22,18c0,3.85,5.28,2.73,5.28-1.45S23.22,13.65,23.22,18Z" transform="translate(-0.78 -6.32)"/>
        <path class="cls-1" d="M37.41,6.32c.81,0,1.33.72,1.33,1.69,0,8.4-.42,11.75.34,11.85l6.45.29A1.31,1.31,0,0,1,47,21.35c0,.41-.18,1.35-1,1.35-6.45,0-9.13,1.17-9.18-3.67.1-5.56-1.64-12.48.6-12.71Z" transform="translate(-0.78 -6.32)"/>
        <path class="cls-1" d="M58.21,21v.08c0,1-1.56,1.35-3.87,1.25s-3.59,0-4.73,0c-1.48,0-1.07-2.31-.83-6.91v-3c-.21-4.37-.55-5.15.7-5.15.54,0,2.49-.08,5.9-.26l.93,0c.47,0,.84.54,1,1.14v.26c0,.75-1.09,1-2.52,1-1.07,0-2.11,0-3.15,0a.48.48,0,0,0-.55.5c0,.67-.05,1.61-.08,2.81l3.67-.42c2.84,0,1.15,2.52-2.08,2.52l-1.61,0,0,3.18c0,2.73.58,2.13,5.13,2.05C57.25,20,58.21,20.28,58.21,21Z" transform="translate(-0.78 -6.32)"/>
        <path class="cls-1" d="M68.2,7c1.53-.1,1.19,13.29.57,14.38a1.62,1.62,0,0,1-1.22.86c-.55.13-1.17-.58-1.69-1.62q-.63-1.12-2.81-5.46c-.52-1-.65-.85-.6,1.88.11,1.63.21,2.93.31,3.9.18,2.67-2.1,2.49-2.31.7-.21-8-.68-12.17-.68-12.59,0-1.74,2.16-2.13,2.76-.26l4.11,9c.72,1.46.65,1,.36-9.1C67,7.83,67.21,7,68.2,7Z" transform="translate(-0.78 -6.32)"/>
        <path class="cls-1" d="M75.81,6.68c1.75.21,3.49,1.82,2.58,3.15-.49.78-1.48.52-2.18-.37-.91-1.14-2.55,0-2.48,1.33.06.68.4,1,1.28,1.35,2,.63,5.48,2.21,5.38,6s-2.24,4.62-4.65,4.52c-5.54-.23-6.68-6.58-1.85-3.17,1.46,1,3.64,1.53,4.06-1.12a2.5,2.5,0,0,0-1.62-2.81c-3-1.3-5.14-1.92-5-4.31S73.66,6.47,75.81,6.68Z" transform="translate(-0.78 -6.32)"/>
      </g>
    </g>
  </g>
</svg>
